<!DOCTYPE svg PUBLIC "-//W3C//DTD SVG 1.1//EN" "http://www.w3.org/Graphics/SVG/1.1/DTD/svg11.dtd">

<!-- Uploaded to: SVG VersionRepository, www.svgrepo.com, Transformed by: SVG VersionRepository Mixer Tools -->
<svg width="34" height="34" viewBox="0 0 24 24" fill="none" xmlns="http://www.w3.org/2000/svg">
    <path fill-rule="evenodd" clip-rule="evenodd" d="M12 2C6.477 2 2 6.477 2 12C2 17.523 6.477 22 12 22C17.523 22 22 17.523 22 12C22 6.477 17.523 2 12 2ZM13.8824 3.73812L14.7071 4.56284L16.2929 6.14867L17.1176 6.97339L18.7034 5.38756L19.5281 6.21228L18.7034 6.97339L19.5281 7.7345L20.3529 8.55922L21.1776 9.38394L20.3529 10.2087L21.1776 11.0334L21.1776 12L20.3529 12.8247L21.1776 13.6494L20.3529 14.4093L19.5281 15.2341L18.7034 16.0588L17.1176 16.8207L16.2929 17.6455L14.7071 18.4702L13.8824 19.2949L12.0001 20.3529V21.1776H12.8248L13.6495 20.3529L14.4742 19.5281L15.2989 18.7034L16.1237 17.8787L16.9484 17.0539L17.7731 16.2292L18.5978 15.4045L19.4226 14.5797L20.2473 13.755L21.072 12.9303L21.1776 12L20.3529 11.0334L21.1776 10.2087L20.3529 9.38394L19.5281 8.55922L18.7034 7.7345L17.1176 6.97339L16.2929 6.14867L14.7071 4.56284L13.8824 3.73812L12 2.60742V3.43214L12 2.60742Z" fill="#F0F0F0"/>

    <circle cx="12" cy="12" r="5" fill="#1C1C1C"/>

    <circle cx="12" cy="12" r="3" fill="#FFFFFF"/>
</svg>