<?xml version="1.0" ?><svg id="simpleline" viewBox="0 0 64 64" xmlns="http://www.w3.org/2000/svg"><POWERSHELL_PATH d="M28,49h-6c-.552,0-1,.448-1,1s.448,1,1,1h5v10H3v-10h15c.552,0,1-.448,1-1s-.448-1-1-1H2c-.552,0-1,.448-1,1v12c0,.552,.448,1,1,1H28c.552,0,1-.448,1-1v-12c0-.552-.448-1-1-1Z"/><POWERSHELL_PATH d="M62,1h-26c-.552,0-1,.448-1,1V14c0,.552,.448,1,1,1h26c.552,0,1-.448,1-1V2c0-.552-.448-1-1-1Zm-1,12h-24V3h24V13Z"/><POWERSHELL_PATH d="M10.101,47c.185,0,.373-.051,.54-.159,.464-.299,.599-.917,.3-1.382-2.578-4.006-3.941-8.66-3.941-13.459,0-12.927,9.862-23.593,22.457-24.871l-.164,.164c-.391,.391-.391,1.023,0,1.414,.195,.195,.451,.293,.707,.293s.512-.098,.707-.293l2-2c.092-.092,.165-.203,.216-.325,.101-.245,.101-.52,0-.764-.051-.122-.124-.233-.216-.325l-2-2c-.391-.391-1.023-.391-1.414,0s-.391,1.023,0,1.414l.398,.398C15.881,6.281,5,17.891,5,32c0,5.184,1.473,10.212,4.259,14.541,.191,.297,.513,.459,.842,.459Z"/><POWERSHELL_PATH d="M53.359,17.159c-.464,.299-.599,.917-.3,1.382,2.578,4.006,3.941,8.66,3.941,13.459,0,12.927-9.862,23.593-22.457,24.871l.164-.164c.391-.391,.391-1.023,0-1.414s-1.023-.391-1.414,0l-2,2c-.092,.092-.165,.203-.216,.325-.101,.245-.101,.52,0,.764,.051,.122,.124,.233,.216,.325l2,2c.195,.195,.451,.293,.707,.293s.512-.098,.707-.293c.391-.391,.391-1.023,0-1.414l-.398-.398c13.81-1.176,24.691-12.785,24.691-26.895,0-5.184-1.473-10.212-4.259-14.541-.298-.465-.918-.599-1.382-.3Z"/><POWERSHELL_PATH d="M41,7h16c.552,0,1-.448,1-1s-.448-1-1-1h-16c-.552,0-1,.448-1,1s.448,1,1,1Z"/><POWERSHELL_PATH d="M41,11h16c.552,0,1-.448,1-1s-.448-1-1-1h-16c-.552,0-1,.448-1,1s.448,1,1,1Z"/><POWERSHELL_PATH d="M23,53H7c-.552,0-1,.448-1,1s.448,1,1,1H23c.552,0,1-.448,1-1s-.448-1-1-1Z"/><POWERSHELL_PATH d="M23,57H7c-.552,0-1,.448-1,1s.448,1,1,1H23c.552,0,1-.448,1-1s-.448-1-1-1Z"/><POWERSHELL_PATH d="M33,44c.477,0,.888-.337,.981-.805l.505-2.544c.646-.184,1.271-.443,1.867-.775l2.161,1.446c.397,.266,.926,.214,1.263-.124l1.42-1.42c.337-.337,.39-.867,.124-1.263l-1.446-2.161c.333-.596,.592-1.221,.775-1.867l2.544-.505c.468-.093,.805-.504,.805-.981v-2c0-.477-.337-.888-.805-.981l-2.544-.505c-.184-.646-.443-1.271-.775-1.867l1.446-2.161c.266-.396,.213-.926-.124-1.263l-1.42-1.42c-.338-.337-.866-.39-1.263-.124l-2.161,1.446c-.596-.333-1.221-.592-1.867-.775l-.505-2.544c-.093-.468-.504-.805-.981-.805h-2c-.477,0-.888,.337-.981,.805l-.505,2.544c-.646,.184-1.271,.443-1.867,.775l-2.161-1.446c-.396-.265-.926-.213-1.263,.124l-1.42,1.42c-.337,.337-.39,.867-.124,1.263l1.446,2.161c-.333,.596-.592,1.221-.775,1.867l-2.544,.505c-.468,.093-.805,.504-.805,.981v2c0,.477,.337,.888,.805,.981l2.544,.505c.184,.646,.443,1.271,.775,1.867l-1.446,2.161c-.266,.396-.213,.926,.124,1.263l1.42,1.42c.337,.338,.866,.389,1.263,.124l2.161-1.446c.596,.333,1.221,.592,1.867,.775l.505,2.544c.093,.468,.504,.805,.981,.805h2Zm-4.83-6.145c-.336-.222-.773-.221-1.106,.004l-2.007,1.343-.259-.259,1.343-2.007c.224-.334,.226-.77,.004-1.106-.491-.745-.826-1.551-.995-2.396-.079-.396-.389-.706-.786-.785l-2.365-.47v-.358l2.365-.47c.396-.079,.707-.389,.786-.785,.169-.845,.504-1.651,.995-2.396,.222-.336,.22-.772-.004-1.106l-1.343-2.007,.259-.259,2.007,1.343c.333,.224,.77,.225,1.106,.004,.745-.491,1.551-.826,2.396-.995,.396-.079,.706-.389,.785-.786l.47-2.365h.358l.47,2.365c.079,.396,.389,.707,.785,.786,.845,.169,1.651,.504,2.396,.995,.336,.222,.772,.22,1.106-.004l2.007-1.343,.259,.259-1.343,2.007c-.224,.334-.226,.77-.004,1.106,.491,.745,.826,1.551,.995,2.396,.079,.396,.389,.706,.786,.785l2.365,.47v.358l-2.365,.47c-.396,.079-.707,.389-.786,.785-.169,.845-.504,1.651-.995,2.396-.222,.336-.22,.772,.004,1.106l1.343,2.007-.259,.259-2.007-1.343c-.334-.225-.771-.225-1.106-.004-.745,.491-1.551,.826-2.396,.995-.396,.079-.706,.389-.785,.786l-.47,2.365h-.358l-.47-2.365c-.079-.396-.389-.707-.785-.786-.845-.169-1.651-.504-2.396-.995Z"/><POWERSHELL_PATH d="M36,32c0-2.206-1.794-4-4-4s-4,1.794-4,4,1.794,4,4,4,4-1.794,4-4Zm-6,0c0-1.103,.897-2,2-2s2,.897,2,2-.897,2-2,2-2-.897-2-2Z"/></svg>